<?xml version="1.0" encoding="UTF-8" standalone="no"?>
<!DOCTYPE svg PUBLIC "-//W3C//DTD SVG 1.1//EN"
 "http://www.w3.org/Graphics/SVG/1.1/DTD/svg11.dtd">
<!-- Generated by graphviz version 7.1.0 (20230122.1345)
 -->
<!-- Title: snakemake_dag Pages: 1 -->
<svg width="438pt" height="342pt"
 viewBox="0.00 0.00 438.00 342.00" xmlns="http://www.w3.org/2000/svg" xmlns:xlink="http://www.w3.org/1999/xlink">
<g id="graph0" class="graph" transform="scale(1 1) rotate(0) translate(4 338)">
<title>snakemake_dag</title>
<polygon fill="white" stroke="none" points="-4,4 -4,-338 434,-338 434,4 -4,4"/>
<!-- 0 -->
<g id="node1" class="node">
<title>0</title>
<path fill="none" stroke="#d85656" stroke-width="2" d="M231,-36C231,-36 199,-36 199,-36 193,-36 187,-30 187,-24 187,-24 187,-12 187,-12 187,-6 193,0 199,0 199,0 231,0 231,0 237,0 243,-6 243,-12 243,-12 243,-24 243,-24 243,-30 237,-36 231,-36"/>
<text text-anchor="middle" x="215" y="-15.5" font-family="sans" font-size="10.00">all_max</text>
</g>
<!-- 1 -->
<g id="node2" class="node">
<title>1</title>
<path fill="none" stroke="#d8bc56" stroke-width="2" d="M82,-108C82,-108 12,-108 12,-108 6,-108 0,-102 0,-96 0,-96 0,-84 0,-84 0,-78 6,-72 12,-72 12,-72 82,-72 82,-72 88,-72 94,-78 94,-84 94,-84 94,-96 94,-96 94,-102 88,-108 82,-108"/>
<text text-anchor="middle" x="47" y="-93" font-family="sans" font-size="10.00">max_contig</text>
<text text-anchor="middle" x="47" y="-82" font-family="sans" font-size="10.00">assem: toy_k19</text>
</g>
<!-- 1&#45;&gt;0 -->
<g id="edge1" class="edge">
<title>1&#45;&gt;0</title>
<path fill="none" stroke="grey" stroke-width="2" d="M89.83,-71.15C115.81,-60.33 148.77,-46.59 174.35,-35.94"/>
<polygon fill="grey" stroke="grey" stroke-width="2" points="175.57,-39.22 183.46,-32.14 172.88,-32.76 175.57,-39.22"/>
</g>
<!-- 2 -->
<g id="node3" class="node">
<title>2</title>
<path fill="none" stroke="#88d856" stroke-width="2" d="M102,-185C102,-185 52,-185 52,-185 46,-185 40,-179 40,-173 40,-173 40,-156 40,-156 40,-150 46,-144 52,-144 52,-144 102,-144 102,-144 108,-144 114,-150 114,-156 114,-156 114,-173 114,-173 114,-179 108,-185 102,-185"/>
<text text-anchor="middle" x="77" y="-173" font-family="sans" font-size="10.00">assemble</text>
<text text-anchor="middle" x="77" y="-162" font-family="sans" font-size="10.00">kmer: 19</text>
<text text-anchor="middle" x="77" y="-151" font-family="sans" font-size="10.00">sample: toy</text>
</g>
<!-- 2&#45;&gt;1 -->
<g id="edge5" class="edge">
<title>2&#45;&gt;1</title>
<path fill="none" stroke="grey" stroke-width="2" d="M68.64,-143.3C65.72,-136.24 62.38,-128.16 59.2,-120.49"/>
<polygon fill="grey" stroke="grey" stroke-width="2" points="62.51,-119.32 55.45,-111.42 56.04,-122 62.51,-119.32"/>
</g>
<!-- 3 -->
<g id="node4" class="node">
<title>3</title>
<path fill="none" stroke="#56c1d8" stroke-width="2" d="M195.5,-262C195.5,-262 136.5,-262 136.5,-262 130.5,-262 124.5,-256 124.5,-250 124.5,-250 124.5,-233 124.5,-233 124.5,-227 130.5,-221 136.5,-221 136.5,-221 195.5,-221 195.5,-221 201.5,-221 207.5,-227 207.5,-233 207.5,-233 207.5,-250 207.5,-250 207.5,-256 201.5,-262 195.5,-262"/>
<text text-anchor="middle" x="166" y="-250" font-family="sans" font-size="10.00">concatenate</text>
<text text-anchor="middle" x="166" y="-239" font-family="sans" font-size="10.00">condition: toy</text>
<text text-anchor="middle" x="166" y="-228" font-family="sans" font-size="10.00">end: 1</text>
</g>
<!-- 3&#45;&gt;2 -->
<g id="edge6" class="edge">
<title>3&#45;&gt;2</title>
<path fill="none" stroke="grey" stroke-width="2" d="M141.68,-220.01C132.26,-212.07 121.31,-202.84 111.13,-194.26"/>
<polygon fill="grey" stroke="grey" stroke-width="2" points="113.51,-191.69 103.61,-187.92 109,-197.04 113.51,-191.69"/>
</g>
<!-- 8 -->
<g id="node9" class="node">
<title>8</title>
<path fill="none" stroke="#88d856" stroke-width="2" d="M194,-185C194,-185 144,-185 144,-185 138,-185 132,-179 132,-173 132,-173 132,-156 132,-156 132,-150 138,-144 144,-144 144,-144 194,-144 194,-144 200,-144 206,-150 206,-156 206,-156 206,-173 206,-173 206,-179 200,-185 194,-185"/>
<text text-anchor="middle" x="169" y="-173" font-family="sans" font-size="10.00">assemble</text>
<text text-anchor="middle" x="169" y="-162" font-family="sans" font-size="10.00">kmer: 21</text>
<text text-anchor="middle" x="169" y="-151" font-family="sans" font-size="10.00">sample: toy</text>
</g>
<!-- 3&#45;&gt;8 -->
<g id="edge13" class="edge">
<title>3&#45;&gt;8</title>
<path fill="none" stroke="grey" stroke-width="2" d="M166.82,-220.01C167.08,-213.47 167.38,-206.07 167.67,-198.87"/>
<polygon fill="grey" stroke="grey" stroke-width="2" points="171.16,-199.13 168.06,-188.99 164.16,-198.85 171.16,-199.13"/>
</g>
<!-- 10 -->
<g id="node11" class="node">
<title>10</title>
<path fill="none" stroke="#88d856" stroke-width="2" d="M290,-185C290,-185 240,-185 240,-185 234,-185 228,-179 228,-173 228,-173 228,-156 228,-156 228,-150 234,-144 240,-144 240,-144 290,-144 290,-144 296,-144 302,-150 302,-156 302,-156 302,-173 302,-173 302,-179 296,-185 290,-185"/>
<text text-anchor="middle" x="265" y="-173" font-family="sans" font-size="10.00">assemble</text>
<text text-anchor="middle" x="265" y="-162" font-family="sans" font-size="10.00">kmer: 25</text>
<text text-anchor="middle" x="265" y="-151" font-family="sans" font-size="10.00">sample: toy</text>
</g>
<!-- 3&#45;&gt;10 -->
<g id="edge16" class="edge">
<title>3&#45;&gt;10</title>
<path fill="none" stroke="grey" stroke-width="2" d="M193.05,-220.01C203.75,-211.9 216.22,-202.46 227.74,-193.73"/>
<polygon fill="grey" stroke="grey" stroke-width="2" points="229.71,-196.63 235.57,-187.8 225.48,-191.05 229.71,-196.63"/>
</g>
<!-- 12 -->
<g id="node13" class="node">
<title>12</title>
<path fill="none" stroke="#88d856" stroke-width="2" d="M382,-185C382,-185 332,-185 332,-185 326,-185 320,-179 320,-173 320,-173 320,-156 320,-156 320,-150 326,-144 332,-144 332,-144 382,-144 382,-144 388,-144 394,-150 394,-156 394,-156 394,-173 394,-173 394,-179 388,-185 382,-185"/>
<text text-anchor="middle" x="357" y="-173" font-family="sans" font-size="10.00">assemble</text>
<text text-anchor="middle" x="357" y="-162" font-family="sans" font-size="10.00">kmer: 27</text>
<text text-anchor="middle" x="357" y="-151" font-family="sans" font-size="10.00">sample: toy</text>
</g>
<!-- 3&#45;&gt;12 -->
<g id="edge19" class="edge">
<title>3&#45;&gt;12</title>
<path fill="none" stroke="grey" stroke-width="2" d="M208.5,-224.25C241.86,-211.5 285.52,-194.8 307.29,-186.34"/>
<polygon fill="grey" stroke="grey" stroke-width="2" points="308.3,-189.7 316.32,-182.78 305.74,-183.19 308.3,-189.7"/>
</g>
<!-- 4 -->
<g id="node5" class="node">
<title>4</title>
<path fill="none" stroke="#56d88a" stroke-width="2" d="M196,-334C196,-334 134,-334 134,-334 128,-334 122,-328 122,-322 122,-322 122,-310 122,-310 122,-304 128,-298 134,-298 134,-298 196,-298 196,-298 202,-298 208,-304 208,-310 208,-310 208,-322 208,-322 208,-328 202,-334 196,-334"/>
<text text-anchor="middle" x="165" y="-319" font-family="sans" font-size="10.00">cutadapt</text>
<text text-anchor="middle" x="165" y="-308" font-family="sans" font-size="10.00">sample: toy_1</text>
</g>
<!-- 4&#45;&gt;3 -->
<g id="edge8" class="edge">
<title>4&#45;&gt;3</title>
<path fill="none" stroke="grey" stroke-width="2" d="M165.25,-297.08C165.34,-290.58 165.44,-283.01 165.54,-275.62"/>
<polygon fill="grey" stroke="grey" stroke-width="2" points="169.04,-275.85 165.68,-265.8 162.04,-275.75 169.04,-275.85"/>
</g>
<!-- 6 -->
<g id="node7" class="node">
<title>6</title>
<path fill="none" stroke="#56c1d8" stroke-width="2" d="M296.5,-262C296.5,-262 237.5,-262 237.5,-262 231.5,-262 225.5,-256 225.5,-250 225.5,-250 225.5,-233 225.5,-233 225.5,-227 231.5,-221 237.5,-221 237.5,-221 296.5,-221 296.5,-221 302.5,-221 308.5,-227 308.5,-233 308.5,-233 308.5,-250 308.5,-250 308.5,-256 302.5,-262 296.5,-262"/>
<text text-anchor="middle" x="267" y="-250" font-family="sans" font-size="10.00">concatenate</text>
<text text-anchor="middle" x="267" y="-239" font-family="sans" font-size="10.00">condition: toy</text>
<text text-anchor="middle" x="267" y="-228" font-family="sans" font-size="10.00">end: 2</text>
</g>
<!-- 4&#45;&gt;6 -->
<g id="edge10" class="edge">
<title>4&#45;&gt;6</title>
<path fill="none" stroke="grey" stroke-width="2" d="M190.21,-297.08C201.64,-288.95 215.42,-279.16 228.13,-270.13"/>
<polygon fill="grey" stroke="grey" stroke-width="2" points="229.89,-273.17 236.01,-264.53 225.83,-267.47 229.89,-273.17"/>
</g>
<!-- 5 -->
<g id="node6" class="node">
<title>5</title>
<path fill="none" stroke="#56d88a" stroke-width="2" d="M300,-334C300,-334 238,-334 238,-334 232,-334 226,-328 226,-322 226,-322 226,-310 226,-310 226,-304 232,-298 238,-298 238,-298 300,-298 300,-298 306,-298 312,-304 312,-310 312,-310 312,-322 312,-322 312,-328 306,-334 300,-334"/>
<text text-anchor="middle" x="269" y="-319" font-family="sans" font-size="10.00">cutadapt</text>
<text text-anchor="middle" x="269" y="-308" font-family="sans" font-size="10.00">sample: toy_2</text>
</g>
<!-- 5&#45;&gt;3 -->
<g id="edge9" class="edge">
<title>5&#45;&gt;3</title>
<path fill="none" stroke="grey" stroke-width="2" d="M243.54,-297.08C232,-288.95 218.09,-279.16 205.25,-270.13"/>
<polygon fill="grey" stroke="grey" stroke-width="2" points="207.47,-267.41 197.28,-264.52 203.44,-273.13 207.47,-267.41"/>
</g>
<!-- 5&#45;&gt;6 -->
<g id="edge11" class="edge">
<title>5&#45;&gt;6</title>
<path fill="none" stroke="grey" stroke-width="2" d="M268.51,-297.08C268.33,-290.58 268.12,-283.01 267.91,-275.62"/>
<polygon fill="grey" stroke="grey" stroke-width="2" points="271.42,-275.7 267.64,-265.8 264.42,-275.89 271.42,-275.7"/>
</g>
<!-- 6&#45;&gt;2 -->
<g id="edge7" class="edge">
<title>6&#45;&gt;2</title>
<path fill="none" stroke="grey" stroke-width="2" d="M224.72,-223.99C222.11,-222.98 219.52,-221.97 217,-221 178.86,-206.26 166.57,-202.37 126.84,-186.49"/>
<polygon fill="grey" stroke="grey" stroke-width="2" points="128.25,-183.29 117.67,-182.8 125.64,-189.78 128.25,-183.29"/>
</g>
<!-- 6&#45;&gt;8 -->
<g id="edge14" class="edge">
<title>6&#45;&gt;8</title>
<path fill="none" stroke="grey" stroke-width="2" d="M240.22,-220.01C229.63,-211.9 217.29,-202.46 205.88,-193.73"/>
<polygon fill="grey" stroke="grey" stroke-width="2" points="208.22,-191.11 198.15,-187.81 203.96,-196.67 208.22,-191.11"/>
</g>
<!-- 6&#45;&gt;10 -->
<g id="edge17" class="edge">
<title>6&#45;&gt;10</title>
<path fill="none" stroke="grey" stroke-width="2" d="M266.45,-220.01C266.28,-213.47 266.08,-206.07 265.89,-198.87"/>
<polygon fill="grey" stroke="grey" stroke-width="2" points="269.39,-198.9 265.63,-189 262.39,-199.09 269.39,-198.9"/>
</g>
<!-- 6&#45;&gt;12 -->
<g id="edge20" class="edge">
<title>6&#45;&gt;12</title>
<path fill="none" stroke="grey" stroke-width="2" d="M291.59,-220.01C301.12,-212.07 312.19,-202.84 322.49,-194.26"/>
<polygon fill="grey" stroke="grey" stroke-width="2" points="324.67,-197 330.11,-187.91 320.19,-191.62 324.67,-197"/>
</g>
<!-- 7 -->
<g id="node8" class="node">
<title>7</title>
<path fill="none" stroke="#d8bc56" stroke-width="2" d="M194,-108C194,-108 124,-108 124,-108 118,-108 112,-102 112,-96 112,-96 112,-84 112,-84 112,-78 118,-72 124,-72 124,-72 194,-72 194,-72 200,-72 206,-78 206,-84 206,-84 206,-96 206,-96 206,-102 200,-108 194,-108"/>
<text text-anchor="middle" x="159" y="-93" font-family="sans" font-size="10.00">max_contig</text>
<text text-anchor="middle" x="159" y="-82" font-family="sans" font-size="10.00">assem: toy_k21</text>
</g>
<!-- 7&#45;&gt;0 -->
<g id="edge2" class="edge">
<title>7&#45;&gt;0</title>
<path fill="none" stroke="grey" stroke-width="2" d="M173.13,-71.34C179.05,-63.93 186.09,-55.14 192.68,-46.9"/>
<polygon fill="grey" stroke="grey" stroke-width="2" points="195.27,-49.26 198.79,-39.27 189.81,-44.89 195.27,-49.26"/>
</g>
<!-- 8&#45;&gt;7 -->
<g id="edge12" class="edge">
<title>8&#45;&gt;7</title>
<path fill="none" stroke="grey" stroke-width="2" d="M166.21,-143.3C165.28,-136.5 164.21,-128.74 163.18,-121.33"/>
<polygon fill="grey" stroke="grey" stroke-width="2" points="166.68,-121.05 161.84,-111.62 159.74,-122.01 166.68,-121.05"/>
</g>
<!-- 9 -->
<g id="node10" class="node">
<title>9</title>
<path fill="none" stroke="#d8bc56" stroke-width="2" d="M306,-108C306,-108 236,-108 236,-108 230,-108 224,-102 224,-96 224,-96 224,-84 224,-84 224,-78 230,-72 236,-72 236,-72 306,-72 306,-72 312,-72 318,-78 318,-84 318,-84 318,-96 318,-96 318,-102 312,-108 306,-108"/>
<text text-anchor="middle" x="271" y="-93" font-family="sans" font-size="10.00">max_contig</text>
<text text-anchor="middle" x="271" y="-82" font-family="sans" font-size="10.00">assem: toy_k25</text>
</g>
<!-- 9&#45;&gt;0 -->
<g id="edge3" class="edge">
<title>9&#45;&gt;0</title>
<path fill="none" stroke="grey" stroke-width="2" d="M256.87,-71.34C250.95,-63.93 243.91,-55.14 237.32,-46.9"/>
<polygon fill="grey" stroke="grey" stroke-width="2" points="240.19,-44.89 231.21,-39.27 234.73,-49.26 240.19,-44.89"/>
</g>
<!-- 10&#45;&gt;9 -->
<g id="edge15" class="edge">
<title>10&#45;&gt;9</title>
<path fill="none" stroke="grey" stroke-width="2" d="M266.67,-143.3C267.23,-136.58 267.86,-128.93 268.47,-121.6"/>
<polygon fill="grey" stroke="grey" stroke-width="2" points="271.96,-121.89 269.29,-111.64 264.98,-121.32 271.96,-121.89"/>
</g>
<!-- 11 -->
<g id="node12" class="node">
<title>11</title>
<path fill="none" stroke="#d8bc56" stroke-width="2" d="M418,-108C418,-108 348,-108 348,-108 342,-108 336,-102 336,-96 336,-96 336,-84 336,-84 336,-78 342,-72 348,-72 348,-72 418,-72 418,-72 424,-72 430,-78 430,-84 430,-84 430,-96 430,-96 430,-102 424,-108 418,-108"/>
<text text-anchor="middle" x="383" y="-93" font-family="sans" font-size="10.00">max_contig</text>
<text text-anchor="middle" x="383" y="-82" font-family="sans" font-size="10.00">assem: toy_k27</text>
</g>
<!-- 11&#45;&gt;0 -->
<g id="edge4" class="edge">
<title>11&#45;&gt;0</title>
<path fill="none" stroke="grey" stroke-width="2" d="M340.17,-71.15C314.19,-60.33 281.23,-46.59 255.65,-35.94"/>
<polygon fill="grey" stroke="grey" stroke-width="2" points="257.12,-32.76 246.54,-32.14 254.43,-39.22 257.12,-32.76"/>
</g>
<!-- 12&#45;&gt;11 -->
<g id="edge18" class="edge">
<title>12&#45;&gt;11</title>
<path fill="none" stroke="grey" stroke-width="2" d="M364.24,-143.3C366.75,-136.33 369.6,-128.35 372.32,-120.77"/>
<polygon fill="grey" stroke="grey" stroke-width="2" points="375.58,-122.07 375.66,-111.47 368.99,-119.7 375.58,-122.07"/>
</g>
</g>
</svg>
